<?xml version="1.0" encoding="utf-8"?>
<!-- Svg Vector Icons : http://www.onlinewebfonts.com/icon -->
<!DOCTYPE svg PUBLIC "-//W3C//DTD SVG 1.1//EN" "http://www.w3.org/Graphics/SVG/1.1/DTD/svg11.dtd">
<svg version="1.1" xmlns="http://www.w3.org/2000/svg" xmlns:xlink="http://www.w3.org/1999/xlink" x="0px" y="0px" viewBox="0 0 1000 1000" enable-background="new 0 0 1000 1000" xml:space="preserve">
<metadata> Svg Vector Icons : http://www.onlinewebfonts.com/icon </metadata>
<g><path d="M75.7,453.1c0-208.7,169.2-377.9,378-377.9c208.7,0,377.9,169.2,377.9,377.9c0,208.7-169.2,377.9-377.9,377.9C244.9,831,75.7,661.8,75.7,453.1L75.7,453.1z M791.3,740.8c66.1-77.5,106-177.9,106-287.7c0-245-198.6-443.7-443.7-443.7C208.6,9.4,10,208.1,10,453.1c0,245,198.6,443.7,443.7,443.7c105.6,0,202.6-36.9,278.8-98.5l0,0"/><path d="M980.6,936.4L780.9,738c-12.4-12.4-32.5-12.2-44.8,0.2c-12.3,12.4-12.3,32.5,0.2,44.8L936,981.3c12.4,12.3,32.5,12.3,44.8-0.2C993.1,968.8,993.1,948.7,980.6,936.4L980.6,936.4z"/></g>
</svg>